<svg xmlns="http://www.w3.org/2000/svg" xmlns:xlink="http://www.w3.org/1999/xlink">

<symbol id="scholar" fill-rule="evenodd" clip-rule="evenodd" stroke-linejoin="round" stroke-miterlimit="1.414" viewBox="0 0 90 90"><path d="M 25 3 C 12.85 3 3 12.85 3 25 C 3 37.15 12.85 47 25 47 C 37.15 47 47 37.15 47 25 C 47 12.85 37.15 3 25 3 z M 21 11 L 38 11 L 36.980469 11.880859 C 36.980469 11.920859 37 11.96 37 12 L 37 17.279297 C 37.6 17.619297 38 18.26 38 19 L 38 25 C 38 26.1 37.1 27 36 27 C 34.9 27 34 26.1 34 25 L 34 19 C 34 18.26 34.4 17.619297 35 17.279297 L 35 13.570312 L 31.410156 16.650391 C 31.760156 17.350391 32 18.200234 32 19.240234 C 32 21.960234 30.480703 23.309766 28.970703 24.509766 C 28.500703 24.989766 27.949219 25.510312 27.949219 26.320312 C 27.949219 27.120313 28.500391 27.570625 28.900391 27.890625 L 30.189453 28.919922 C 31.779453 30.279922 33.220703 31.530547 33.220703 34.060547 C 33.220703 37.510547 29.930469 41 23.730469 41 C 18.500469 41 15.980469 38.47 15.980469 35.75 C 15.980469 34.43 16.629766 32.559531 18.759766 31.269531 C 20.989766 29.879531 24.020391 29.690078 25.650391 29.580078 C 25.140391 28.920078 24.560547 28.230078 24.560547 27.080078 C 24.560547 26.470078 24.749687 26.100391 24.929688 25.650391 C 24.529688 25.690391 24.129531 25.730469 23.769531 25.730469 C 19.969531 25.730469 17.799297 22.85 17.779297 20 L 11 20 L 21 11 z M 24.269531 14.240234 C 23.339531 14.240234 22.33 14.710938 21.75 15.460938 C 21.14 16.220938 20.949219 17.210156 20.949219 18.160156 C 20.949219 20.620156 22.370938 24.699219 25.460938 24.699219 C 26.370938 24.699219 27.339922 24.259922 27.919922 23.669922 C 28.739922 22.819922 28.820312 21.65 28.820312 21 C 28.820312 18.35 27.269531 14.240234 24.269531 14.240234 z M 26.039062 30.609375 C 25.719062 30.609375 23.769766 30.679219 22.259766 31.199219 C 21.459766 31.499219 19.160156 32.370469 19.160156 34.980469 C 19.160156 37.590469 21.64 39.460938 25.5 39.460938 C 28.97 39.460938 30.800781 37.760234 30.800781 35.490234 C 30.800781 33.620234 29.620859 32.630391 26.880859 30.650391 C 26.590859 30.610391 26.409063 30.609375 26.039062 30.609375 z"/></symbol>

<symbol id="github" fill-rule="evenodd" clip-rule="evenodd" stroke-linejoin="round" stroke-miterlimit="1.414"><path d="M8 0C3.58 0 0 3.582 0 8c0 3.535 2.292 6.533 5.47 7.59.4.075.547-.172.547-.385 0-.19-.007-.693-.01-1.36-2.226.483-2.695-1.073-2.695-1.073-.364-.924-.89-1.17-.89-1.17-.725-.496.056-.486.056-.486.803.056 1.225.824 1.225.824.714 1.223 1.873.87 2.33.665.072-.517.278-.87.507-1.07-1.777-.2-3.644-.888-3.644-3.953 0-.873.31-1.587.823-2.147-.09-.202-.36-1.015.07-2.117 0 0 .67-.215 2.2.82.64-.178 1.32-.266 2-.27.68.004 1.36.092 2 .27 1.52-1.035 2.19-.82 2.19-.82.43 1.102.16 1.915.08 2.117.51.56.82 1.274.82 2.147 0 3.073-1.87 3.75-3.65 3.947.28.24.54.73.54 1.48 0 1.07-.01 1.93-.01 2.19 0 .21.14.46.55.38C13.71 14.53 16 11.53 16 8c0-4.418-3.582-8-8-8"/></symbol>

<symbol id="linkedin" fill-rule="evenodd" clip-rule="evenodd" stroke-linejoin="round" stroke-miterlimit="1.414"><path d="M13.632 13.635h-2.37V9.922c0-.886-.018-2.025-1.234-2.025-1.235 0-1.424.964-1.424 1.96v3.778h-2.37V6H8.51v1.04h.03c.318-.6 1.092-1.233 2.247-1.233 2.4 0 2.845 1.58 2.845 3.637v4.188zM3.558 4.955c-.762 0-1.376-.617-1.376-1.377 0-.758.614-1.375 1.376-1.375.76 0 1.376.617 1.376 1.375 0 .76-.617 1.377-1.376 1.377zm1.188 8.68H2.37V6h2.376v7.635zM14.816 0H1.18C.528 0 0 .516 0 1.153v13.694C0 15.484.528 16 1.18 16h13.635c.652 0 1.185-.516 1.185-1.153V1.153C16 .516 15.467 0 14.815 0z" fill-rule="nonzero"/></symbol>

<symbol id="rss" fill-rule="evenodd" clip-rule="evenodd" stroke-linejoin="round" stroke-miterlimit="1.414"><path d="M12.8 16C12.8 8.978 7.022 3.2 0 3.2V0c8.777 0 16 7.223 16 16h-3.2zM2.194 11.61c1.21 0 2.195.985 2.195 2.196 0 1.21-.99 2.194-2.2 2.194C.98 16 0 15.017 0 13.806c0-1.21.983-2.195 2.194-2.195zM10.606 16h-3.11c0-4.113-3.383-7.497-7.496-7.497v-3.11c5.818 0 10.606 4.79 10.606 10.607z"/></symbol>

<symbol id="twitter" fill-rule="evenodd" clip-rule="evenodd" stroke-linejoin="round" stroke-miterlimit="1.414"><path d="M16 3.038c-.59.26-1.22.437-1.885.517.677-.407 1.198-1.05 1.443-1.816-.634.37-1.337.64-2.085.79-.598-.64-1.45-1.04-2.396-1.04-1.812 0-3.282 1.47-3.282 3.28 0 .26.03.51.085.75-2.728-.13-5.147-1.44-6.766-3.42C.83 2.58.67 3.14.67 3.75c0 1.14.58 2.143 1.46 2.732-.538-.017-1.045-.165-1.487-.41v.04c0 1.59 1.13 2.918 2.633 3.22-.276.074-.566.114-.865.114-.21 0-.41-.02-.61-.058.42 1.304 1.63 2.253 3.07 2.28-1.12.88-2.54 1.404-4.07 1.404-.26 0-.52-.015-.78-.045 1.46.93 3.18 1.474 5.04 1.474 6.04 0 9.34-5 9.34-9.33 0-.14 0-.28-.01-.42.64-.46 1.2-1.04 1.64-1.7z" fill-rule="nonzero"/></symbol>

<symbol id="email" fill-rule="evenodd" clip-rule="evenodd" stroke-linejoin="round" stroke-miterlimit="1.414"><path d="M7,9L5.268,7.484l-4.952,4.245C0.496,11.896,0.739,12,1.007,12h11.986    c0.267,0,0.509-0.104,0.688-0.271L8.732,7.484L7,9z"/><path d="M13.684,2.271C13.504,2.103,13.262,2,12.993,2H1.007C0.74,2,0.498,2.104,0.318,2.273L7,8    L13.684,2.271z"/><polygon points="0,2.878 0,11.186 4.833,7.079   "/><polygon points="9.167,7.079 14,11.186 14,2.875   "/></symbol>

</svg>
